<?xml version="1.0" encoding="utf-8"?>
<!-- Generated by Mocodo 4.1.2 -->
<svg width="202" height="187" viewBox="0 0 202 187" xmlns="http://www.w3.org/2000/svg">
<rect x="0" y="0" width="202" height="187" fill="#f7f7f7" stroke="none" stroke-width="0"/>

<!-- Association APPARTENIR -->
<g>
	<line x1="163" y1="60" x2="55" y2="60" stroke="#7fbc41" stroke-width="2"/>
	<line x1="55" y1="144" x2="55" y2="60" stroke="#7fbc41" stroke-width="2"/>
	<g>
		<path d="M87 35 a14 14 90 0 1 14 14 V60 h-92 V49 a14 14 90 0 1 14 -14" fill="#b8e186" stroke="#b8e186" stroke-width="0"/>
		<path d="M101 60 v11 a14 14 90 0 1 -14 14 H23 a14 14 90 0 1 -14 -14 V60 H92" fill="#e6f5d0" stroke="#e6f5d0" stroke-width="0"/>
		<rect x="9" y="35" width="92" height="50" fill="none" rx="14" stroke="#7fbc41" stroke-width="2"/>
		<line x1="9" y1="60" x2="101" y2="60" stroke="#7fbc41" stroke-width="1"/>
		<text x="16" y="52.75" fill="#000000" font-family="Verdana" font-size="12">APPARTENIR</text>
	</g>
	<text x="107" y="77" fill="#c51b7d" font-family="Verdana" font-size="12">1,1</text>
	<text x="60" y="102" fill="#c51b7d" font-family="Verdana" font-size="12">0,N</text>
</g>

<!-- Entity POSTS -->
<g>
	<g>
		<rect x="133" y="9" width="60" height="25" fill="#f1b6da" stroke="none" stroke-width="0" opacity="1"/>
		<rect x="133" y="34" width="60" height="77" fill="#fde0ef" stroke="none" stroke-width="0" opacity="1"/>
		<rect x="133" y="9" width="60" height="102" fill="none" stroke="#de77ae" stroke-width="2" opacity="1"/>
		<line x1="133" y1="34" x2="193" y2="34" stroke="#de77ae" stroke-width="1"/>
	</g>
	<text x="143" y="26.75" fill="#000000" font-family="Verdana" font-size="12">POSTS</text>
	<text x="138" y="51.8" fill="#000000" font-family="Verdana" font-size="12">titre</text>
	<line x1="138" y1="54" x2="164" y2="54" stroke="#000000" stroke-width="1"/>
	<text x="138" y="68.8" fill="#000000" font-family="Verdana" font-size="12">slug</text>
	<text x="138" y="85.8" fill="#000000" font-family="Verdana" font-size="12">résumé</text>
	<text x="138" y="102.8" fill="#000000" font-family="Verdana" font-size="12">contenu</text>
</g>

<!-- Entity CATEGORIES -->
<g>
	<g>
		<rect x="9" y="110" width="92" height="25" fill="#f1b6da" stroke="none" stroke-width="0" opacity="1"/>
		<rect x="9" y="135" width="92" height="43" fill="#fde0ef" stroke="none" stroke-width="0" opacity="1"/>
		<rect x="9" y="110" width="92" height="68" fill="none" stroke="#de77ae" stroke-width="2" opacity="1"/>
		<line x1="9" y1="135" x2="101" y2="135" stroke="#de77ae" stroke-width="1"/>
	</g>
	<text x="15" y="127.75" fill="#000000" font-family="Verdana" font-size="12">CATEGORIES</text>
	<text x="14" y="152.8" fill="#000000" font-family="Verdana" font-size="12">label</text>
	<line x1="14" y1="155" x2="43" y2="155" stroke="#000000" stroke-width="1"/>
	<text x="14" y="169.8" fill="#000000" font-family="Verdana" font-size="12">route</text>
</g>
</svg>